<svg width="25" height="24" viewBox="0 0 25 24" fill="none" xmlns="http://www.w3.org/2000/svg">
<path d="M13.6719 1.1741V1.98753C13.6719 2.51507 14.0274 2.97185 14.5355 3.1138C18.3205 4.17107 21.0938 7.64197 21.0938 11.7671C21.0938 16.7324 17.0755 20.7514 12.1094 20.7514C7.14411 20.7514 3.12502 16.7331 3.12502 11.7671C3.12502 7.64256 5.89778 4.17117 9.68323 3.1138C10.1914 2.97185 10.5469 2.51497 10.5469 1.98738V1.17449C10.5469 0.407449 9.82258 -0.15134 9.07981 0.0400174C3.83806 1.39021 -0.029566 6.16189 0.000170303 11.8321C0.0353266 18.5241 5.44338 23.8905 12.1355 23.8764C18.8113 23.8623 24.2188 18.4462 24.2188 11.7671C24.2188 6.12093 20.3545 1.37747 15.1264 0.0367948C14.3886 -0.152414 13.6719 0.412381 13.6719 1.1741Z" fill="#777777"/>
</svg>
