<svg width="26" height="26" viewBox="0 0 26 26" fill="none" xmlns="http://www.w3.org/2000/svg">
<path d="M25.9493 13.3607C25.9493 20.2643 20.3529 25.8607 13.4493 25.8607C6.54576 25.8607 0.949341 20.2643 0.949341 13.3607C0.949341 6.45714 6.54576 0.860718 13.4493 0.860718C20.3529 0.860718 25.9493 6.45714 25.9493 13.3607ZM12.0035 19.9794L21.2777 10.7052C21.5926 10.3903 21.5926 9.87962 21.2777 9.5647L20.1372 8.42423C19.8223 8.10926 19.3116 8.10926 18.9967 8.42423L11.4332 15.9876L7.90201 12.4564C7.58709 12.1415 7.07646 12.1415 6.76149 12.4564L5.62101 13.5969C5.30609 13.9118 5.30609 14.4225 5.62101 14.7374L10.8629 19.9793C11.1779 20.2943 11.6885 20.2943 12.0035 19.9794Z" fill="#09E079"/>
</svg>
