<svg width="27" height="25" viewBox="0 0 27 25" fill="none" xmlns="http://www.w3.org/2000/svg">
<path d="M18.8719 4.05841L23.1 8.46357C23.2781 8.64915 23.2781 8.95194 23.1 9.13753L12.8625 19.8037L8.5125 20.3067C7.93125 20.3751 7.43906 19.8623 7.50469 19.2567L7.9875 14.7246L18.225 4.05841C18.4031 3.87283 18.6938 3.87283 18.8719 4.05841ZM26.4656 2.94003L24.1781 0.556749C23.4656 -0.185583 22.3078 -0.185583 21.5906 0.556749L19.9313 2.2856C19.7531 2.47119 19.7531 2.77398 19.9313 2.95956L24.1594 7.36472C24.3375 7.5503 24.6281 7.5503 24.8063 7.36472L26.4656 5.63587C27.1781 4.88865 27.1781 3.68236 26.4656 2.94003ZM18 16.9027V21.8744H3V6.24634H13.7719C13.9219 6.24634 14.0625 6.18285 14.1703 6.07541L16.0453 4.1219C16.4016 3.75073 16.1484 3.12073 15.6469 3.12073H2.25C1.00781 3.12073 0 4.17074 0 5.46493V22.6558C0 23.95 1.00781 25 2.25 25H18.75C19.9922 25 21 23.95 21 22.6558V14.9492C21 14.4266 20.3953 14.1678 20.0391 14.5341L18.1641 16.4876C18.0609 16.5999 18 16.7464 18 16.9027Z" fill="white"/>
</svg>
