<svg width="22" height="25" viewBox="0 0 22 25" fill="none" xmlns="http://www.w3.org/2000/svg">
<path d="M0 22.6562C0 23.9502 1.0498 25 2.34375 25H19.5312C20.8252 25 21.875 23.9502 21.875 22.6562V9.375H0V22.6562ZM3.125 13.2812C3.125 12.8516 3.47656 12.5 3.90625 12.5H8.59375C9.02344 12.5 9.375 12.8516 9.375 13.2812V17.9688C9.375 18.3984 9.02344 18.75 8.59375 18.75H3.90625C3.47656 18.75 3.125 18.3984 3.125 17.9688V13.2812ZM19.5312 3.125H17.1875V0.78125C17.1875 0.351562 16.8359 0 16.4062 0H14.8438C14.4141 0 14.0625 0.351562 14.0625 0.78125V3.125H7.8125V0.78125C7.8125 0.351562 7.46094 0 7.03125 0H5.46875C5.03906 0 4.6875 0.351562 4.6875 0.78125V3.125H2.34375C1.0498 3.125 0 4.1748 0 5.46875V7.8125H21.875V5.46875C21.875 4.1748 20.8252 3.125 19.5312 3.125Z" fill="#777777"/>
</svg>
